<?xml version="1.0" standalone="no"?>
<svg viewBox="0 0 200 200" xmlns="http://www.w3.org/2000/svg">
  <path fill="#FF0066" d="M38.2,-70.4C46.5,-61.5,47.9,-45,48.7,-32C49.4,-19,49.4,-9.5,49.3,-0.1C49.1,9.3,48.7,18.6,47.2,30.3C45.7,42,43.1,56.1,35.1,67.7C27,79.4,13.5,88.5,-1.1,90.4C-15.7,92.3,-31.4,86.9,-39.2,75.2C-47.1,63.4,-47,45.3,-52.5,31.7C-58,18.1,-69,9,-72.4,-2C-75.8,-13,-71.7,-26,-66.4,-39.9C-61.1,-53.8,-54.7,-68.7,-43.4,-75.9C-32.2,-83,-16.1,-82.5,-0.5,-81.6C15,-80.6,30,-79.3,38.2,-70.4Z" transform="translate(100 100)" />
</svg>
